<svg xmlns="http://www.w3.org/2000/svg" width="512" height="512" viewBox="0 0 512 512">
  <!-- Coffee beans scattered -->
  <ellipse cx="160" cy="300" rx="55" ry="65" transform="rotate(-20 160 300)" fill="none" stroke="#1c1c1c" stroke-width="26"/>
  <path d="M130 270c20 20 20 50 0 70" fill="none" stroke="#1c1c1c" stroke-width="14" stroke-linecap="round"/>
  
  <ellipse cx="290" cy="180" rx="55" ry="65" transform="rotate(15 290 180)" fill="none" stroke="#1c1c1c" stroke-width="26"/>
  <path d="M265 145c15 24 15 52 0 72" fill="none" stroke="#1c1c1c" stroke-width="14" stroke-linecap="round"/>
  
  <ellipse cx="350" cy="330" rx="50" ry="60" transform="rotate(-10 350 330)" fill="none" stroke="#1c1c1c" stroke-width="26"/>
  <path d="M325 300c15 20 15 45 0 65" fill="none" stroke="#1c1c1c" stroke-width="14" stroke-linecap="round"/>
  
  <ellipse cx="140" cy="140" rx="45" ry="55" transform="rotate(25 140 140)" fill="none" stroke="#1c1c1c" stroke-width="26"/>
  <path d="M118 110c14 20 14 46 0 64" fill="none" stroke="#1c1c1c" stroke-width="14" stroke-linecap="round"/>
  
  <ellipse cx="270" cy="390" rx="48" ry="58" transform="rotate(5 270 390)" fill="none" stroke="#1c1c1c" stroke-width="26"/>
  <path d="M248 358c14 22 14 48 0 68" fill="none" stroke="#1c1c1c" stroke-width="14" stroke-linecap="round"/>
</svg>
