<svg xmlns="http://www.w3.org/2000/svg" width="512" height="512" viewBox="0 0 512 512">
  <!-- Two open hands cradling coffee cherries -->
  <path d="M160 460c-8 0-16-4-22-12l-80-120c-12-18-8-40 4-56 14-18 36-24 54-14l24 14V160c0-22 18-40 40-40s40 18 40 40v80" fill="none" stroke="#1c1c1c" stroke-width="30" stroke-linecap="round" stroke-linejoin="round"/>
  <path d="M352 460c8 0 16-4 22-12l80-120c12-18 8-40-4-56-14-18-36-24-54-14l-24 14V160c0-22-18-40-40-40s-40 18-40 40v80" fill="none" stroke="#1c1c1c" stroke-width="30" stroke-linecap="round" stroke-linejoin="round"/>
  <!-- Coffee cherries with leaves -->
  <ellipse cx="232" cy="200" rx="28" ry="34" fill="none" stroke="#1c1c1c" stroke-width="24"/>
  <ellipse cx="280" cy="200" rx="28" ry="34" fill="none" stroke="#1c1c1c" stroke-width="24"/>
  <path d="M240 166c-10-30 0-60 16-80" fill="none" stroke="#1c1c1c" stroke-width="20" stroke-linecap="round"/>
  <path d="M272 166c10-30 0-60-16-80" fill="none" stroke="#1c1c1c" stroke-width="20" stroke-linecap="round"/>
  <!-- Leaves -->
  <path d="M240 90c-30-10-60 0-70 20 20-4 46 0 60 16" fill="none" stroke="#1c1c1c" stroke-width="18" stroke-linecap="round" stroke-linejoin="round"/>
  <path d="M272 90c30-10 60 0 70 20-20-4-46 0-60 16" fill="none" stroke="#1c1c1c" stroke-width="18" stroke-linecap="round" stroke-linejoin="round"/>
</svg>
