<svg xmlns="http://www.w3.org/2000/svg" viewBox="0 0 80 80">
  <circle cx="40" cy="40" r="40" fill="#1c1c1c"/>
  <g transform="translate(18,16)" fill="none" stroke="white" stroke-width="2.2" stroke-linecap="round" stroke-linejoin="round">
    <!-- Hand picking -->
    <path d="M22 34 C22 34 18 28 18 24 C18 20 14 18 12 20 C10 22 10 26 14 30"/>
    <path d="M14 30 C10 28 6 26 4 28 C2 30 4 34 8 34 L22 34"/>
    <path d="M22 34 L22 40 C22 42 24 44 26 44 L34 44"/>
    <path d="M34 44 C36 44 38 42 38 40 L38 34"/>
    <path d="M38 34 C38 30 36 28 34 28"/>
    <path d="M34 28 L28 28 C26 28 24 26 24 24"/>
    <!-- Coffee cherry -->
    <circle cx="28" cy="10" r="4" fill="white" stroke="none"/>
    <circle cx="36" cy="12" r="3.5" fill="white" stroke="none"/>
    <path d="M32 6 L32 2" stroke="white"/>
    <path d="M30 4 C32 2 34 2 36 4" stroke="white" fill="none"/>
  </g>
</svg>
