<svg xmlns="http://www.w3.org/2000/svg" width="512" height="512" viewBox="0 0 512 512">
  <path d="M256 24C186.6 24 130 80.6 130 150c0 42.2 19.8 86.2 51.5 126.4C209 313.8 240.4 343 256 356c15.6-13 47-42.2 74.5-79.6C362.2 236.2 382 192.2 382 150 382 80.6 325.4 24 256 24zm0 190c-35.3 0-64-28.7-64-64s28.7-64 64-64 64 28.7 64 64-28.7 64-64 64z" fill="#1c1c1c"/>
  <circle cx="256" cy="150" r="24" fill="white"/>
  <path d="M60 400l80-56h232l80 56z" fill="none" stroke="#1c1c1c" stroke-width="36" stroke-linejoin="round"/>
  <path d="M140 344L60 400h392l-80-56" fill="none" stroke="#1c1c1c" stroke-width="36" stroke-linejoin="round"/>
  <path d="M196 372l60 38 60-38" fill="none" stroke="#1c1c1c" stroke-width="28" stroke-linejoin="round"/>
</svg>
